<?xml version="1.0" standalone="no"?>
<!DOCTYPE svg PUBLIC "-//W3C//DTD SVG 20010904//EN"
 "http://www.w3.org/TR/2001/REC-SVG-20010904/DTD/svg10.dtd">
<svg version="1.0" xmlns="http://www.w3.org/2000/svg"
 width="512.000000pt" height="512.000000pt" viewBox="0 0 512.000000 512.000000"
 preserveAspectRatio="xMidYMid meet">
<metadata>
Created by potrace 1.11, written by Peter Selinger 2001-2013
</metadata>
<g transform="translate(0.000000,512.000000) scale(0.100000,-0.100000)"
fill="#000000" stroke="none">
<path d="M0 2560 l0 -2560 2560 0 2560 0 0 2560 0 2560 -2560 0 -2560 0 0
-2560z m1517 1478 c5 -7 234 -643 508 -1413 274 -770 502 -1404 506 -1409 5
-5 11 -7 14 -5 3 3 225 624 495 1380 270 756 498 1393 507 1417 l16 42 223 0
c172 0 224 -3 224 -12 0 -7 -266 -745 -592 -1640 l-593 -1628 -296 0 -297 0
-16 42 c-133 352 -1173 3225 -1170 3230 3 5 108 8 233 8 171 0 231 -3 238 -12z"/>
</g>
</svg>
