<?xml version="1.0" encoding="utf-8"?>
<!-- Generated by IcoMoon.io -->
<!DOCTYPE svg PUBLIC "-//W3C//DTD SVG 1.1//EN" "http://www.w3.org/Graphics/SVG/1.1/DTD/svg11.dtd">
<svg version="1.1" xmlns="http://www.w3.org/2000/svg" xmlns:xlink="http://www.w3.org/1999/xlink" width="24" height="24" viewBox="0 0 24 24">
<path fill="#000000" d="M11.482 11.854h-8.601c-0.336 0-0.639-0.204-0.767-0.515s-0.053-0.666 0.185-0.903l7.159-7.037h-6.578c-0.457 0-0.828-0.374-0.828-0.828 0-0.459 0.371-0.828 0.828-0.828h8.601c0.336 0 0.639 0.204 0.766 0.515s0.053 0.666-0.185 0.903l-7.159 7.037h6.578c0.457 0 0.828 0.373 0.828 0.828 0 0.459-0.373 0.828-0.828 0.828zM21.119 13.555h-4.053l4.636-4.557c0.24-0.238 0.311-0.591 0.185-0.903-0.128-0.311-0.432-0.517-0.768-0.517h-6.078c-0.455 0-0.828 0.371-0.828 0.828 0 0.454 0.373 0.828 0.828 0.828h4.055l-4.636 4.557c-0.242 0.238-0.313 0.59-0.185 0.903s0.431 0.517 0.766 0.517h6.078c0.457 0 0.828-0.371 0.828-0.828 0-0.455-0.371-0.828-0.828-0.828zM11.773 20.598h-2.826l3.407-3.346c0.24-0.237 0.313-0.594 0.185-0.906s-0.431-0.515-0.766-0.515h-4.85c-0.457 0-0.828 0.373-0.828 0.828 0 0.457 0.371 0.828 0.828 0.828h2.826l-3.407 3.348c-0.24 0.238-0.313 0.59-0.185 0.903 0.128 0.311 0.431 0.517 0.767 0.517h4.85c0.457 0 0.828-0.371 0.828-0.828 0-0.455-0.368-0.828-0.828-0.828z"></path>
</svg>
