<svg xmlns="http://www.w3.org/2000/svg" viewBox="0 0 511.998 511.998"><ellipse transform="rotate(22.059 217.038 254.971)" cx="217.023" cy="254.98" rx="38.996" ry="24.1" fill="#67b758"/><path d="M226.071 232.648a62.211 62.211 0 0 0-9.056-2.898c-5.163 11.198-11.282 29.45-7.858 48.043 19.571 7.48 39.108 3.932 44.007-8.162 4.998-12.338-7.132-28.896-27.093-36.983z" fill="#5aaa4f"/><path d="M255.999 389.21c-10.22 0-18.583-8.362-18.583-18.583V201.876c0-10.22 8.362-18.583 18.583-18.583 10.22 0 18.583 8.362 18.583 18.583v168.751c0 10.22-8.362 18.583-18.583 18.583z" fill="#7ec66a"/><ellipse transform="rotate(-22.059 294.978 254.992)" cx="294.989" cy="254.974" rx="38.996" ry="24.1" fill="#b1ef97"/><path d="M291.334 261.626c-4.315-10.65 4.145-24.443 19.374-33.219-7.476-.599-16.156.741-24.781 4.236-19.962 8.087-32.092 24.645-27.093 36.983 4.999 12.338 25.233 15.784 45.195 7.697a62.624 62.624 0 0 0 7.737-3.767c-9.825-.788-17.593-4.924-20.432-11.93z" fill="#92dd7a"/><path d="M353.828 29.09C327.709.479 282.741.569 255.516 27.793 228.292.569 183.324.479 157.204 29.09c-66.408 72.743 31.466 149.781 77.06 179.784a38.636 38.636 0 0 0 42.503 0c45.595-30.004 143.468-107.041 77.061-179.784z" fill="#ff737d"/><path d="M234.265 208.878a38.638 38.638 0 0 0 39.833 1.604c-29.553-19.442-42.409-45.03-47.91-66.502-5.374-20.979 3.453-42.945 21.695-54.616 47.291-30.255 46.618-80.798 46.613-81.135a69.191 69.191 0 0 0-38.98 19.569C228.292.574 183.324.484 157.205 29.095c-66.408 72.742 31.466 149.78 77.06 179.783z" fill="#f46262"/><path d="M303.033 504.501h-94.068c-24.224 0-43.861-19.637-43.861-43.861V322.71h181.791v137.929c-.001 24.224-19.638 43.862-43.862 43.862z" fill="#dd9f80"/><path d="M165.104 322.71v137.929c0 24.224 19.637 43.861 43.861 43.861h54.859c-12.303-6.179-16.805-25.674-18.162-44.267-1.625-22.267 12.804-42.557 34.302-48.584l66.931-18.766V322.71H165.104z" fill="#c68d6d"/><path d="M348.103 379.123H163.896c-17.817 0-32.394-14.577-32.394-32.394s14.577-32.394 32.394-32.394h184.207c17.817 0 32.394 14.577 32.394 32.394-.001 17.817-14.578 32.394-32.394 32.394z" fill="#eab9a4"/><path d="M203.219 346.729c0-17.817 14.577-32.394 32.394-32.394h-71.718c-17.817 0-32.394 14.577-32.394 32.394s14.577 32.394 32.394 32.394h71.718c-17.816 0-32.394-14.577-32.394-32.394z" fill="#dd9f80"/><path d="M387.996 346.729c0-21.997-17.896-39.894-39.894-39.894h-66.021v-17.644c.244.003 12.415-.009 24.764-4.917 10.957-4.355 20.211-11.322 26.141-19.416 6.613-9.028 8.978-19.216 5.087-27.335-13.042-27.212-55.648-11.54-55.991-11.395v-11.777c35.451-23.494 94.416-70.023 101.05-123.053 3.01-24.063-4.985-46.695-23.765-67.266C345.657 9.015 326.791.487 306.244.019c-18.476-.416-36.578 5.947-50.728 17.646C241.366 5.968 223.246-.386 204.788.019c-20.547.468-39.414 8.996-53.123 24.013-23.356 25.586-30.003 54.048-19.754 84.598 1.317 3.927 15.534 35.566 19.462 34.25 3.667-1.23 18.522 12.75-.884-29.237-1.374-2.973-2.62-6.226-4.357-9.784-8.504-25.35-3.07-48.152 16.612-69.713 10.921-11.962 25.974-18.756 42.386-19.129 16.788-.385 33.211 6.207 45.083 18.079a7.501 7.501 0 0 0 10.606 0c11.872-11.872 28.282-18.486 45.083-18.079 16.413.373 31.466 7.167 42.387 19.129 15.904 17.422 22.433 35.508 19.958 55.29-2.592 20.723-15.217 42.945-37.523 66.049-19.486 20.183-42.339 36.766-58.079 47.124a31.126 31.126 0 0 1-34.257-.001c-20.407-13.429-57.858-40.798-79.398-73.223-2.292-3.45-10.202-10.354-13.651-8.063-3.45 2.292-1.135 12.913 1.157 16.363 12.046 18.134 36.297 46.253 83.421 77.302v11.153c-.346-.146-43.41-17.432-55.993 11.383-7.092 16.242 6.916 37.332 31.228 46.751 11.867 4.598 24.533 4.914 24.765 4.911v17.648h-66.021c-21.998 0-39.894 17.896-39.894 39.894 0 19.856 14.584 36.366 33.603 39.393v74.517c0 28.32 23.041 51.361 51.361 51.361h94.068c28.32 0 51.361-23.041 51.361-51.361V386.12c19.017-3.025 33.601-19.535 33.601-39.391zm-99.252-107.136c6.642-2.69 12.995-3.857 18.464-3.857 8.695 0 15.152 2.952 16.963 7.42 1.385 3.418.188 8.097-3.285 12.837-4.243 5.792-11.413 11.033-19.673 14.379-17.202 6.972-32.479 3.718-35.428-3.562-2.948-7.279 5.755-20.247 22.959-27.217zm-77.96 30.781c-17.204-6.97-25.907-19.938-22.958-27.216 2.949-7.278 18.225-10.53 35.427-3.563a55.032 55.032 0 0 1 6.664 3.25v31.336c-6.001.102-12.726-1.212-19.133-3.807zm34.133-48.869a46.112 46.112 0 0 0 10.6 1.241c3.887 0 7.774-.492 11.565-1.475v13.56c-13.727 10.674-20.187 25.297-15.199 37.61 2.653 6.547 8.096 11.296 15.199 14.037v20.357h-22.166zm103.186 150.118h-47.877a7.499 7.499 0 0 0-7.5 7.5c0 4.143 3.357 7.5 7.5 7.5h39.169v74.017c0 20.05-16.312 36.361-36.361 36.361h-94.068c-20.049 0-36.361-16.312-36.361-36.361v-74.017h97.629c69.161 0 24.562-3.287 26.483-6.958 2.169-4.143 33.572-8.042-26.483-8.042H163.896c-13.727 0-24.894-11.167-24.894-24.894 0-13.727 11.167-24.894 24.894-24.894h184.207c13.727 0 24.894 11.167 24.894 24.894 0 13.727-11.168 24.894-24.894 24.894z"/></svg>