<?xml version="1.0" encoding="iso-8859-1"?>
<!-- Generator: Adobe Illustrator 19.0.0, SVG Export Plug-In . SVG Version: 6.00 Build 0)  -->
<svg version="1.1" id="Layer_1" xmlns="http://www.w3.org/2000/svg" xmlns:xlink="http://www.w3.org/1999/xlink" x="0px" y="0px"
	 viewBox="0 0 512 512" style="enable-background:new 0 0 512 512;" xml:space="preserve">
<path style="fill:#9B735A;" d="M392.677,503.685l-283.857-76.059c-4.562-1.223-7.268-5.911-6.047-10.473l6.071-22.66
	c1.223-4.562,5.911-7.268,10.473-6.047l283.856,76.058c4.562,1.223,7.268,5.911,6.047,10.473l-6.071,22.66
	C401.927,502.2,397.238,504.907,392.677,503.685z"/>
<path style="fill:#B58F5C;" d="M108.846,394.493c1.223-4.562,5.911-7.268,10.473-6.047l283.856,76.058
	c4.562,1.223,7.268,5.911,6.047,10.473l-3.463,12.926l-300.376-80.485L108.846,394.493z"/>
<g>
	<path style="fill:#FFC850;" d="M255.998,200.151c10.154,69.741,61.134,85.24,61.134,131.001c0,17.594-7.475,33.406-19.371,44.56
		c43.709-16.807,74.783-59.077,74.783-108.705c0-58.273-32.374-77.697-19.188-148.919c0,0-45.56,25.899-45.56,84.172
		c0,0-12.802-11.994-6.892-84.172c6.892-84.172-59.009-110.071-59.009-110.071c27.052,90.647-37.696,155.394-37.696,155.394
		c-19.424-51.798-54.095-58.273-54.095-58.273c21.721,45.323-10.652,97.122-10.652,161.868c0,49.628,31.076,91.898,74.784,108.705
		c-11.897-11.154-19.371-26.966-19.371-44.561C194.865,261.285,255.998,200.151,255.998,200.151"/>
	<path style="fill:#FFC850;" d="M275.744,108.578c0.059-0.507,0.158-1.003,0.206-1.511
		C275.95,107.067,275.868,107.626,275.744,108.578z"/>
</g>
<path style="fill:#FFF082;" d="M308.908,238.361c-51.942-44.445-39.014-91.745-36.231-111.601
	c-32.712,58.335-99.851,86.159-107.534,149.546c-8.551,70.546,49.094,99.406,49.094,99.406
	c-11.897-11.154-19.372-26.967-19.372-44.561c0-69.866,61.134-131.001,61.134-131.001c10.154,69.742,61.134,85.241,61.134,131.001
	c0,17.594-7.475,33.406-19.371,44.56c7.892-3.035,15.363-6.904,22.313-11.498c34.718-22.952,40.481-71.578,12.842-102.694
	C326.669,254.488,318.796,246.822,308.908,238.361z"/>
<path style="fill:#9B735A;" d="M119.319,503.685l283.856-76.058c4.562-1.223,7.268-5.911,6.047-10.473l-6.071-22.66
	c-1.223-4.562-5.911-7.268-10.473-6.047l-283.857,76.058c-4.562,1.223-7.268,5.911-6.047,10.473l6.071,22.66
	C110.068,502.2,114.757,504.907,119.319,503.685z"/>
<path style="fill:#B58F5C;" d="M403.15,394.493c-1.223-4.562-5.911-7.268-10.473-6.047l-283.857,76.058
	c-4.562,1.223-7.268,5.911-6.047,10.473l3.463,12.926l300.375-80.485L403.15,394.493z"/>
<path d="M405.25,456.762l-39.918-10.696l39.918-10.696c4.274-1.146,7.847-3.888,10.059-7.719c2.213-3.832,2.8-8.298,1.656-12.571
	l-6.071-22.66c-2.364-8.824-11.47-14.079-20.291-11.715l-134.604,36.067l-134.603-36.067c-8.826-2.362-17.927,2.891-20.292,11.715
	l-6.071,22.659c-1.145,4.274-0.557,8.739,1.656,12.572c2.213,3.832,5.785,6.574,10.06,7.719l39.918,10.696l-39.918,10.696
	c-4.274,1.146-7.847,3.888-10.059,7.719c-2.213,3.832-2.8,8.298-1.656,12.571l6.071,22.66c1.146,4.276,3.886,7.848,7.719,10.06
	c2.554,1.474,5.386,2.227,8.257,2.227c1.439,0,2.888-0.189,4.315-0.572l0,0l134.605-36.067l134.603,36.067
	c1.427,0.382,2.875,0.572,4.315,0.572c2.871,0,5.704-0.754,8.257-2.227c3.832-2.213,6.574-5.786,7.719-10.06l6.071-22.659
	c1.145-4.274,0.557-8.739-1.656-12.572C413.097,460.649,409.524,457.907,405.25,456.762z M110.572,419.634
	c-0.111-0.191-0.067-0.353-0.053-0.405l6.071-22.659c0.014-0.053,0.057-0.214,0.249-0.325s0.353-0.067,0.405-0.053l107.779,28.879
	l-47.384,12.696l-22.765-6.1c-2.931-0.786-4.676-3.808-3.891-6.739c1.146-4.277-1.392-8.673-5.668-9.819
	c-4.273-1.14-8.673,1.392-9.819,5.668c-0.488,1.821-0.71,3.668-0.718,5.505l-23.882-6.399
	C110.843,419.869,110.683,419.825,110.572,419.634z M117.245,495.941L117.245,495.941c-0.053,0.014-0.215,0.058-0.405-0.053
	c-0.191-0.111-0.235-0.272-0.249-0.325l-6.071-22.66c-0.077-0.284,0.093-0.578,0.377-0.654l141.421-37.893
	c0.009,1.837,0.231,3.683,0.718,5.506c0.96,3.582,4.199,5.944,7.739,5.944c0.687,0,1.385-0.089,2.08-0.275
	c4.277-1.146,6.814-5.542,5.668-9.819c-0.381-1.419-0.185-2.903,0.549-4.176s1.922-2.184,3.341-2.564l0,0l122.339-32.78
	c0.046-0.013,0.092-0.018,0.138-0.018c0.236,0,0.452,0.157,0.516,0.395l6.071,22.66c0.077,0.284-0.093,0.578-0.377,0.654
	l-23.882,6.399c-0.009-1.837-0.23-3.683-0.718-5.505c-1.146-4.276-5.541-6.812-9.819-5.668c-4.277,1.146-6.814,5.542-5.668,9.819
	c0.786,2.931-0.96,5.955-3.892,6.74h-0.001l-188.859,50.603c-0.009-1.836-0.23-3.683-0.718-5.505
	c-1.146-4.277-5.544-6.811-9.819-5.669c-4.277,1.146-6.814,5.542-5.669,9.819c0.381,1.421,0.185,2.903-0.549,4.177
	c-0.735,1.273-1.922,2.183-3.341,2.564L117.245,495.941z M401.477,472.904l-6.071,22.66c-0.014,0.052-0.058,0.214-0.249,0.325
	c-0.191,0.111-0.352,0.067-0.405,0.053l-30.921-8.285c-1.419-0.381-2.606-1.291-3.34-2.563c-0.735-1.273-0.93-2.757-0.549-4.177
	c1.146-4.277-1.393-8.672-5.669-9.819c-4.271-1.14-8.672,1.392-9.819,5.669c-0.488,1.821-0.71,3.668-0.718,5.505l-56.762-15.209
	l47.385-12.696l66.743,17.883c0.053,0.014,0.214,0.057,0.325,0.249C401.535,472.69,401.492,472.85,401.477,472.904z"/>
<path d="M211.359,383.195c0.941,0.361,1.914,0.534,2.874,0.534c2.695,0,5.292-1.364,6.794-3.758
	c2.037-3.248,1.489-7.484-1.308-10.107c-10.859-10.18-16.838-23.929-16.838-38.712c0-65.637,58.202-124.747,58.785-125.333
	c3.131-3.131,3.131-8.207,0-11.337c-3.131-3.131-8.207-3.131-11.337,0c-2.592,2.592-63.482,64.314-63.482,136.669
	c0,7.723,1.251,15.227,3.659,22.3c-8.985-6.798-16.907-15-23.49-24.388c-12.788-18.239-19.549-39.698-19.549-62.058
	c0-25.067,5.002-48.046,9.839-70.268c5.816-26.72,11.375-52.264,6.295-76.502c0.764,0.524,1.545,1.084,2.339,1.681
	c12.883,9.693,23.516,25.014,30.753,44.308c0.958,2.552,3.145,4.443,5.809,5.021c2.666,0.576,5.438-0.239,7.366-2.167
	c0.702-0.702,17.342-17.516,30.592-45.991c10.693-22.98,20.835-57.654,13.534-98.781c4.363,3.195,9.258,7.347,14.086,12.604
	c19.147,20.842,27.501,47.934,24.832,80.522c-5.776,70.553,5.736,87.241,9.401,90.676c2.331,2.184,5.738,2.776,8.669,1.505
	c2.932-1.27,4.829-4.16,4.829-7.355c0-32.285,14.966-53.634,26.938-65.548c-2.604,31.658,4.216,52.774,10.847,73.304
	c5.621,17.401,10.93,33.839,10.93,56.992c0,22.36-6.76,43.819-19.548,62.058c-6.583,9.388-14.505,17.59-23.491,24.388
	c2.408-7.074,3.659-14.578,3.659-22.301c0-22.713-12.696-39.022-26.139-56.288c-9.732-12.502-19.796-25.429-25.467-41.644
	c-1.462-4.179-6.033-6.382-10.214-4.921c-4.179,1.462-6.382,6.035-4.921,10.214c6.54,18.698,17.914,33.309,27.95,46.2
	c12.211,15.685,22.758,29.232,22.758,46.439c0,14.784-5.979,28.531-16.837,38.712c-2.797,2.623-3.346,6.859-1.308,10.107
	c2.037,3.248,6.09,4.599,9.669,3.224c23.261-8.944,43.134-24.48,57.47-44.925c14.69-20.95,22.453-45.592,22.453-71.262
	c0-25.679-5.95-44.103-11.706-61.92c-7.666-23.736-14.908-46.153-7.616-85.539c0.568-3.066-0.694-6.183-3.234-7.991
	c-2.541-1.807-5.899-1.977-8.61-0.437c-1.509,0.857-28.299,16.485-41.869,50.118c-0.355-11.145-0.049-25.165,1.369-42.494
	c3.797-46.369-13.677-75.992-29.005-92.677C263.215,7.916,245.571,0.848,244.827,0.556c-2.853-1.122-6.098-0.516-8.357,1.558
	c-2.259,2.075-3.135,5.257-2.257,8.195c10.584,35.466,7.878,70.955-8.043,105.483c-6.549,14.202-14.119,25.334-19.679,32.551
	c-21.299-44.306-53.444-50.81-54.915-51.085c-2.969-0.555-5.995,0.606-7.833,3.001c-1.837,2.396-2.173,5.621-0.868,8.344
	c11.833,24.692,5.777,52.512-1.235,84.726c-4.784,21.977-10.206,46.888-10.206,73.679c0,25.671,7.764,50.313,22.454,71.262
	C168.225,358.716,188.099,374.251,211.359,383.195z"/>
<g>
</g>
<g>
</g>
<g>
</g>
<g>
</g>
<g>
</g>
<g>
</g>
<g>
</g>
<g>
</g>
<g>
</g>
<g>
</g>
<g>
</g>
<g>
</g>
<g>
</g>
<g>
</g>
<g>
</g>
</svg>
