<?xml version="1.0" encoding="utf-8"?>
<!-- Generated by IcoMoon.io -->
<!DOCTYPE svg PUBLIC "-//W3C//DTD SVG 1.1//EN" "http://www.w3.org/Graphics/SVG/1.1/DTD/svg11.dtd">
<svg version="1.1" xmlns="http://www.w3.org/2000/svg" xmlns:xlink="http://www.w3.org/1999/xlink" width="24" height="24" viewBox="0 0 24 24">
<path fill="#000000" d="M18.736 7.288c0.28 0.28 0.733 0.28 1.013 0l3.962-3.119c0.659 2.073 0.194 4.427-1.451 6.071-1.569 1.57-3.784 2.064-5.786 1.536l-4.699 4.699c0.528 2.002 0.033 4.216-1.535 5.786-1.645 1.645-3.999 2.11-6.072 1.451l3.121-3.962c0.28-0.28 0.28-0.733 0-1.013l-2.025-2.024c-0.28-0.28-0.733-0.28-1.013 0l-3.962 3.119c-0.659-2.073-0.194-4.426 1.451-6.071 1.57-1.57 3.785-2.065 5.786-1.536l4.7-4.7c-0.529-2.001-0.034-4.216 1.535-5.786 1.645-1.645 3.999-2.111 6.073-1.452l-3.121 3.963c-0.279 0.279-0.279 0.733 0 1.012l2.024 2.025z"></path>
</svg>
